<svg xmlns="http://www.w3.org/2000/svg" width="1600" height="900" viewBox="0 0 1600 900" role="img" aria-label="Tutorial illustration">
<rect width="1600" height="900" fill="#f3f0e9"/>
<style>
text { font-family: Helvetica, Arial, sans-serif; fill: #111111; }
.small { font-size: 22px; fill: #66615a; }
.body { font-size: 26px; fill: #66615a; }
.title { font-size: 58px; font-weight: 700; letter-spacing: -1px; }
.label { font-size: 24px; font-weight: 700; }
.muted { fill: #66615a; }
.accent { fill: #b6421d; }
.line { stroke: #171310; stroke-opacity: 0.18; stroke-width: 2; }
.box { fill: none; stroke: #111111; stroke-width: 2; }
.arrow { stroke: #b6421d; stroke-width: 3; fill: none; marker-end: url(#arrow); }
</style>
<defs>
  <marker id="arrow" markerWidth="10" markerHeight="10" refX="9" refY="3" orient="auto" markerUnits="strokeWidth">
    <path d="M0,0 L0,6 L9,3 z" fill="#b6421d" />
  </marker>
</defs>
<text x="90" y="120" class="title">FROM SPREADSHEETS TO SCRIPTS</text><text x="92" y="165" class="body">Tables, CSVs, generated points, and geometry-ready parameters</text><text x="92" y="805" class="body">Python can generate design data, not just store it.</text><text x="1310" y="805" class="label accent">x, y, radius</text><circle cx="403.3" cy="233.6" r="14.7" fill="#b6421d" fill-opacity="0.12"/><circle cx="306.0" cy="214.6" r="14.8" fill="#b6421d" fill-opacity="0.12"/><circle cx="1221.5" cy="596.2" r="22.8" fill="#b6421d" fill-opacity="0.12"/><circle cx="386.3" cy="459.1" r="12.1" fill="#b6421d" fill-opacity="0.12"/><circle cx="327.2" cy="235.2" r="10.7" fill="#b6421d" fill-opacity="0.12"/><circle cx="1233.0" cy="611.0" r="23.7" fill="#b6421d" fill-opacity="0.12"/><circle cx="1080.5" cy="280.6" r="12.8" fill="#b6421d" fill-opacity="0.12"/><circle cx="872.4" cy="560.6" r="24.8" fill="#b6421d" fill-opacity="0.12"/><circle cx="1176.1" cy="225.1" r="19.3" fill="#b6421d" fill-opacity="0.12"/><circle cx="926.0" cy="443.1" r="9.9" fill="#b6421d" fill-opacity="0.12"/><circle cx="688.3" cy="226.5" r="26.6" fill="#b6421d" fill-opacity="0.12"/><circle cx="1158.6" cy="464.8" r="12.6" fill="#b6421d" fill-opacity="0.12"/><circle cx="1210.6" cy="477.6" r="25.4" fill="#b6421d" fill-opacity="0.12"/><circle cx="1137.7" cy="444.4" r="15.1" fill="#b6421d" fill-opacity="0.12"/><circle cx="838.7" cy="404.1" r="9.5" fill="#b6421d" fill-opacity="0.12"/><circle cx="486.1" cy="602.5" r="7.0" fill="#b6421d" fill-opacity="0.12"/><circle cx="175.6" cy="505.7" r="12.2" fill="#b6421d" fill-opacity="0.12"/><circle cx="761.5" cy="425.0" r="13.5" fill="#b6421d" fill-opacity="0.12"/><circle cx="1316.7" cy="281.7" r="15.1" fill="#b6421d" fill-opacity="0.12"/><circle cx="363.2" cy="509.0" r="12.1" fill="#b6421d" fill-opacity="0.12"/><circle cx="547.0" cy="568.4" r="13.1" fill="#b6421d" fill-opacity="0.12"/><circle cx="790.2" cy="650.2" r="8.2" fill="#b6421d" fill-opacity="0.12"/><circle cx="193.9" cy="299.0" r="22.8" fill="#b6421d" fill-opacity="0.12"/><circle cx="858.5" cy="303.5" r="13.3" fill="#b6421d" fill-opacity="0.12"/><circle cx="333.0" cy="418.7" r="6.9" fill="#b6421d" fill-opacity="0.12"/><circle cx="956.8" cy="645.9" r="27.0" fill="#b6421d" fill-opacity="0.12"/><circle cx="1001.9" cy="679.1" r="6.4" fill="#b6421d" fill-opacity="0.12"/><circle cx="466.8" cy="682.3" r="23.1" fill="#b6421d" fill-opacity="0.12"/><circle cx="612.5" cy="670.5" r="19.7" fill="#b6421d" fill-opacity="0.12"/><circle cx="1101.5" cy="332.6" r="10.2" fill="#b6421d" fill-opacity="0.12"/><circle cx="653.0" cy="250.9" r="14.4" fill="#b6421d" fill-opacity="0.12"/><circle cx="1274.2" cy="352.3" r="6.2" fill="#b6421d" fill-opacity="0.12"/><circle cx="173.8" cy="268.2" r="23.2" fill="#b6421d" fill-opacity="0.12"/><circle cx="555.3" cy="331.0" r="8.1" fill="#b6421d" fill-opacity="0.12"/><circle cx="1298.1" cy="400.5" r="10.6" fill="#b6421d" fill-opacity="0.12"/><circle cx="191.2" cy="208.7" r="9.7" fill="#b6421d" fill-opacity="0.12"/><circle cx="932.2" cy="257.8" r="6.9" fill="#b6421d" fill-opacity="0.12"/><circle cx="708.8" cy="309.5" r="27.9" fill="#b6421d" fill-opacity="0.12"/><circle cx="266.7" cy="455.2" r="23.0" fill="#b6421d" fill-opacity="0.12"/><circle cx="611.2" cy="693.6" r="16.5" fill="#b6421d" fill-opacity="0.12"/><circle cx="410.2" cy="393.5" r="6.8" fill="#b6421d" fill-opacity="0.12"/><circle cx="625.5" cy="309.3" r="25.6" fill="#b6421d" fill-opacity="0.12"/><circle cx="1117.3" cy="439.3" r="6.7" fill="#b6421d" fill-opacity="0.12"/><circle cx="425.3" cy="306.0" r="10.6" fill="#b6421d" fill-opacity="0.12"/><circle cx="397.8" cy="632.2" r="9.1" fill="#b6421d" fill-opacity="0.12"/><circle cx="181.5" cy="662.6" r="18.4" fill="#b6421d" fill-opacity="0.12"/><circle cx="1308.7" cy="389.5" r="25.8" fill="#b6421d" fill-opacity="0.12"/><circle cx="904.8" cy="591.2" r="22.4" fill="#b6421d" fill-opacity="0.12"/><circle cx="713.1" cy="228.3" r="10.6" fill="#b6421d" fill-opacity="0.12"/><circle cx="1168.6" cy="647.9" r="26.3" fill="#b6421d" fill-opacity="0.12"/><circle cx="523.9" cy="521.6" r="23.6" fill="#b6421d" fill-opacity="0.12"/><circle cx="891.0" cy="603.7" r="17.6" fill="#b6421d" fill-opacity="0.12"/><circle cx="905.7" cy="536.7" r="11.9" fill="#b6421d" fill-opacity="0.12"/><circle cx="1227.4" cy="677.3" r="7.6" fill="#b6421d" fill-opacity="0.12"/><circle cx="1285.3" cy="680.1" r="20.7" fill="#b6421d" fill-opacity="0.12"/><circle cx="173.5" cy="647.5" r="8.8" fill="#b6421d" fill-opacity="0.12"/><circle cx="1282.2" cy="526.9" r="7.3" fill="#b6421d" fill-opacity="0.12"/><circle cx="320.7" cy="510.3" r="18.5" fill="#b6421d" fill-opacity="0.12"/><circle cx="1015.8" cy="662.3" r="10.8" fill="#b6421d" fill-opacity="0.12"/><circle cx="123.9" cy="659.6" r="6.3" fill="#b6421d" fill-opacity="0.12"/><circle cx="1171.7" cy="240.3" r="23.8" fill="#b6421d" fill-opacity="0.12"/><circle cx="1059.6" cy="636.5" r="18.1" fill="#b6421d" fill-opacity="0.12"/><circle cx="1174.4" cy="284.9" r="20.8" fill="#b6421d" fill-opacity="0.12"/><circle cx="516.8" cy="643.7" r="23.0" fill="#b6421d" fill-opacity="0.12"/><circle cx="685.8" cy="453.7" r="6.6" fill="#b6421d" fill-opacity="0.12"/><circle cx="161.0" cy="489.1" r="16.8" fill="#b6421d" fill-opacity="0.12"/><circle cx="1157.7" cy="496.2" r="9.1" fill="#b6421d" fill-opacity="0.12"/><circle cx="555.1" cy="579.1" r="17.5" fill="#b6421d" fill-opacity="0.12"/><circle cx="132.7" cy="615.6" r="24.2" fill="#b6421d" fill-opacity="0.12"/><circle cx="222.2" cy="462.6" r="14.4" fill="#b6421d" fill-opacity="0.12"/><circle cx="1064.9" cy="341.8" r="11.1" fill="#b6421d" fill-opacity="0.12"/><circle cx="704.0" cy="682.5" r="8.1" fill="#b6421d" fill-opacity="0.12"/><circle cx="257.3" cy="502.9" r="25.5" fill="#b6421d" fill-opacity="0.12"/><circle cx="735.0" cy="405.7" r="24.9" fill="#b6421d" fill-opacity="0.12"/><circle cx="1051.9" cy="214.8" r="25.4" fill="#b6421d" fill-opacity="0.12"/><circle cx="355.0" cy="337.2" r="24.4" fill="#b6421d" fill-opacity="0.12"/><circle cx="627.0" cy="595.1" r="9.7" fill="#b6421d" fill-opacity="0.12"/><circle cx="1169.1" cy="271.7" r="9.3" fill="#b6421d" fill-opacity="0.12"/><circle cx="713.1" cy="356.1" r="17.9" fill="#b6421d" fill-opacity="0.12"/><circle cx="1204.9" cy="549.5" r="6.1" fill="#b6421d" fill-opacity="0.12"/><circle cx="494.2" cy="463.4" r="16.7" fill="#b6421d" fill-opacity="0.12"/><circle cx="978.7" cy="431.8" r="7.7" fill="#b6421d" fill-opacity="0.12"/><circle cx="414.5" cy="620.7" r="13.8" fill="#b6421d" fill-opacity="0.12"/><circle cx="1040.0" cy="692.6" r="19.8" fill="#b6421d" fill-opacity="0.12"/><circle cx="932.1" cy="497.0" r="12.9" fill="#b6421d" fill-opacity="0.12"/><circle cx="1215.3" cy="422.9" r="26.1" fill="#b6421d" fill-opacity="0.12"/><circle cx="486.8" cy="631.1" r="23.3" fill="#b6421d" fill-opacity="0.12"/><circle cx="855.6" cy="409.9" r="9.1" fill="#b6421d" fill-opacity="0.12"/><circle cx="1045.3" cy="368.3" r="20.6" fill="#b6421d" fill-opacity="0.12"/><circle cx="279.9" cy="222.9" r="9.2" fill="#b6421d" fill-opacity="0.12"/><circle cx="1090.8" cy="272.4" r="25.8" fill="#b6421d" fill-opacity="0.12"/><circle cx="566.4" cy="479.5" r="13.7" fill="#b6421d" fill-opacity="0.12"/><circle cx="865.0" cy="228.6" r="14.9" fill="#b6421d" fill-opacity="0.12"/><circle cx="1243.4" cy="273.4" r="20.4" fill="#b6421d" fill-opacity="0.12"/><circle cx="512.0" cy="336.3" r="6.5" fill="#b6421d" fill-opacity="0.12"/><circle cx="144.1" cy="673.7" r="24.3" fill="#b6421d" fill-opacity="0.12"/><circle cx="1081.3" cy="599.8" r="27.0" fill="#b6421d" fill-opacity="0.12"/><circle cx="310.2" cy="483.8" r="16.9" fill="#b6421d" fill-opacity="0.12"/><circle cx="808.6" cy="667.7" r="22.7" fill="#b6421d" fill-opacity="0.12"/><circle cx="1282.2" cy="240.7" r="20.3" fill="#b6421d" fill-opacity="0.12"/><circle cx="930.5" cy="567.5" r="19.6" fill="#b6421d" fill-opacity="0.12"/><circle cx="1117.5" cy="337.5" r="26.4" fill="#b6421d" fill-opacity="0.12"/><circle cx="607.3" cy="491.5" r="25.7" fill="#b6421d" fill-opacity="0.12"/><circle cx="964.3" cy="341.0" r="11.1" fill="#b6421d" fill-opacity="0.12"/><circle cx="511.9" cy="505.9" r="27.9" fill="#b6421d" fill-opacity="0.12"/><circle cx="1198.8" cy="388.1" r="14.8" fill="#b6421d" fill-opacity="0.12"/><circle cx="1101.0" cy="327.6" r="15.1" fill="#b6421d" fill-opacity="0.12"/><circle cx="135.8" cy="275.6" r="17.9" fill="#b6421d" fill-opacity="0.12"/><circle cx="951.9" cy="499.7" r="14.0" fill="#b6421d" fill-opacity="0.12"/><circle cx="1261.3" cy="504.1" r="9.4" fill="#b6421d" fill-opacity="0.12"/><circle cx="201.3" cy="686.4" r="27.7" fill="#b6421d" fill-opacity="0.12"/><circle cx="1224.0" cy="494.0" r="12.9" fill="#b6421d" fill-opacity="0.12"/><circle cx="229.6" cy="314.1" r="10.9" fill="#b6421d" fill-opacity="0.12"/><circle cx="1233.9" cy="644.1" r="23.1" fill="#b6421d" fill-opacity="0.12"/><circle cx="298.5" cy="303.9" r="12.6" fill="#b6421d" fill-opacity="0.12"/><circle cx="1257.5" cy="264.9" r="23.4" fill="#b6421d" fill-opacity="0.12"/><circle cx="936.8" cy="464.5" r="27.1" fill="#b6421d" fill-opacity="0.12"/><circle cx="434.8" cy="452.7" r="9.5" fill="#b6421d" fill-opacity="0.12"/><circle cx="236.1" cy="196.5" r="13.0" fill="#b6421d" fill-opacity="0.12"/><circle cx="266.1" cy="211.9" r="27.8" fill="#b6421d" fill-opacity="0.12"/><circle cx="403.3" cy="233.6" r="34.7" fill="none" stroke="#111111" stroke-opacity="0.55" stroke-width="2"/><circle cx="1080.5" cy="280.6" r="32.8" fill="none" stroke="#111111" stroke-opacity="0.55" stroke-width="2"/><circle cx="1210.6" cy="477.6" r="45.4" fill="none" stroke="#111111" stroke-opacity="0.55" stroke-width="2"/><circle cx="1316.7" cy="281.7" r="35.1" fill="none" stroke="#111111" stroke-opacity="0.55" stroke-width="2"/><circle cx="333.0" cy="418.7" r="26.9" fill="none" stroke="#111111" stroke-opacity="0.55" stroke-width="2"/><circle cx="653.0" cy="250.9" r="34.4" fill="none" stroke="#111111" stroke-opacity="0.55" stroke-width="2"/><circle cx="932.2" cy="257.8" r="26.9" fill="none" stroke="#111111" stroke-opacity="0.55" stroke-width="2"/><circle cx="1117.3" cy="439.3" r="26.7" fill="none" stroke="#111111" stroke-opacity="0.55" stroke-width="2"/><circle cx="713.1" cy="228.3" r="30.6" fill="none" stroke="#111111" stroke-opacity="0.55" stroke-width="2"/><circle cx="1285.3" cy="680.1" r="40.7" fill="none" stroke="#111111" stroke-opacity="0.55" stroke-width="2"/><circle cx="1171.7" cy="240.3" r="43.8" fill="none" stroke="#111111" stroke-opacity="0.55" stroke-width="2"/><circle cx="1157.7" cy="496.2" r="29.1" fill="none" stroke="#111111" stroke-opacity="0.55" stroke-width="2"/>
</svg>