<svg xmlns="http://www.w3.org/2000/svg" width="1600" height="900" viewBox="0 0 1600 900" role="img" aria-label="Tutorial illustration">
<rect width="1600" height="900" fill="#f3f0e9"/>
<style>
text { font-family: Helvetica, Arial, sans-serif; fill: #111111; }
.small { font-size: 22px; fill: #66615a; }
.body { font-size: 26px; fill: #66615a; }
.title { font-size: 58px; font-weight: 700; letter-spacing: -1px; }
.label { font-size: 24px; font-weight: 700; }
.accent { fill: #b6421d; }
.line { stroke: #171310; stroke-opacity: 0.2; stroke-width: 2; }
.box { fill: none; stroke: #111111; stroke-width: 2; }
.arrow { stroke: #b6421d; stroke-width: 3; fill: none; marker-end: url(#arrow); }
.softbox { fill: none; stroke: #171310; stroke-opacity: 0.5; stroke-width: 1.5; }
</style>
<defs>
  <marker id="arrow" markerWidth="10" markerHeight="10" refX="9" refY="3" orient="auto" markerUnits="strokeWidth">
    <path d="M0,0 L0,6 L9,3 z" fill="#b6421d" />
  </marker>
</defs>
<text x="90" y="120" class="title"><tspan x="90" dy="0">MAPPING MEANING</tspan></text><text x="92" y="165" class="body"><tspan x="92" dy="0">Semantic similarity visualized as a navigable field of</tspan><tspan x="92" dy="32">concepts</tspan></text><line x1="120" y1="450" x2="1480" y2="450" class="line"/><line x1="800" y1="210" x2="800" y2="760" class="line"/><text x="1275" y="790" class="small"><tspan x="1275" dy="0">UMAP projection</tspan></text><circle cx="531.7" cy="607.3" r="8" fill="#b6421d" fill-opacity="0.55"/><circle cx="593.1" cy="508.0" r="8" fill="#b6421d" fill-opacity="0.55"/><circle cx="555.1" cy="456.9" r="8" fill="#b6421d" fill-opacity="0.55"/><circle cx="558.3" cy="429.7" r="8" fill="#b6421d" fill-opacity="0.55"/><circle cx="440.8" cy="369.6" r="8" fill="#b6421d" fill-opacity="0.55"/><circle cx="404.9" cy="453.7" r="8" fill="#b6421d" fill-opacity="0.55"/><circle cx="556.9" cy="553.3" r="8" fill="#b6421d" fill-opacity="0.55"/><circle cx="552.5" cy="457.3" r="8" fill="#b6421d" fill-opacity="0.55"/><circle cx="566.4" cy="436.9" r="8" fill="#b6421d" fill-opacity="0.55"/><circle cx="346.8" cy="512.7" r="8" fill="#b6421d" fill-opacity="0.55"/><circle cx="469.7" cy="453.7" r="8" fill="#b6421d" fill-opacity="0.55"/><circle cx="486.2" cy="646.1" r="8" fill="#b6421d" fill-opacity="0.55"/><circle cx="609.1" cy="467.6" r="8" fill="#b6421d" fill-opacity="0.55"/><circle cx="410.4" cy="501.8" r="8" fill="#b6421d" fill-opacity="0.55"/><circle cx="431.3" cy="521.2" r="8" fill="#b6421d" fill-opacity="0.55"/><circle cx="376.9" cy="431.5" r="8" fill="#b6421d" fill-opacity="0.55"/><circle cx="591.3" cy="376.3" r="8" fill="#b6421d" fill-opacity="0.55"/><circle cx="519.4" cy="449.9" r="8" fill="#b6421d" fill-opacity="0.55"/><circle cx="592.8" cy="403.0" r="8" fill="#b6421d" fill-opacity="0.55"/><circle cx="571.0" cy="588.7" r="8" fill="#b6421d" fill-opacity="0.55"/><circle cx="379.2" cy="376.2" r="8" fill="#b6421d" fill-opacity="0.55"/><circle cx="551.1" cy="390.9" r="8" fill="#b6421d" fill-opacity="0.55"/><circle cx="391.7" cy="542.5" r="8" fill="#b6421d" fill-opacity="0.55"/><circle cx="595.6" cy="519.3" r="8" fill="#b6421d" fill-opacity="0.55"/><circle cx="606.4" cy="491.7" r="8" fill="#b6421d" fill-opacity="0.55"/><circle cx="438.4" cy="266.3" r="8" fill="#b6421d" fill-opacity="0.55"/><circle cx="555.8" cy="361.0" r="8" fill="#b6421d" fill-opacity="0.55"/><circle cx="515.7" cy="467.8" r="8" fill="#b6421d" fill-opacity="0.55"/><circle cx="400.2" cy="415.0" r="8" fill="#b6421d" fill-opacity="0.55"/><circle cx="665.5" cy="495.6" r="8" fill="#b6421d" fill-opacity="0.55"/><circle cx="368.0" cy="424.9" r="8" fill="#b6421d" fill-opacity="0.55"/><circle cx="511.9" cy="481.4" r="8" fill="#b6421d" fill-opacity="0.55"/><circle cx="577.7" cy="434.8" r="8" fill="#b6421d" fill-opacity="0.55"/><circle cx="490.6" cy="503.0" r="8" fill="#b6421d" fill-opacity="0.55"/><circle cx="384.7" cy="522.7" r="8" fill="#b6421d" fill-opacity="0.55"/><circle cx="541.0" cy="402.6" r="8" fill="#b6421d" fill-opacity="0.55"/><circle cx="459.3" cy="455.6" r="8" fill="#b6421d" fill-opacity="0.55"/><circle cx="380.3" cy="267.6" r="8" fill="#b6421d" fill-opacity="0.55"/><circle cx="543.2" cy="544.0" r="8" fill="#b6421d" fill-opacity="0.55"/><circle cx="495.7" cy="440.9" r="8" fill="#b6421d" fill-opacity="0.55"/><circle cx="507.0" cy="366.2" r="8" fill="#b6421d" fill-opacity="0.55"/><circle cx="543.7" cy="495.6" r="8" fill="#b6421d" fill-opacity="0.55"/><circle cx="510.0" cy="501.4" r="8" fill="#b6421d" fill-opacity="0.55"/><circle cx="416.6" cy="454.2" r="8" fill="#b6421d" fill-opacity="0.55"/><circle cx="440.4" cy="399.5" r="8" fill="#b6421d" fill-opacity="0.55"/><circle cx="529.7" cy="446.6" r="8" fill="#b6421d" fill-opacity="0.55"/><circle cx="580.9" cy="482.7" r="8" fill="#b6421d" fill-opacity="0.55"/><circle cx="401.5" cy="527.9" r="8" fill="#b6421d" fill-opacity="0.55"/><circle cx="366.7" cy="426.6" r="8" fill="#b6421d" fill-opacity="0.55"/><circle cx="530.4" cy="426.8" r="8" fill="#b6421d" fill-opacity="0.55"/><circle cx="546.5" cy="434.1" r="8" fill="#b6421d" fill-opacity="0.55"/><circle cx="416.1" cy="489.9" r="8" fill="#b6421d" fill-opacity="0.55"/><circle cx="496.9" cy="364.9" r="8" fill="#b6421d" fill-opacity="0.55"/><circle cx="506.4" cy="428.8" r="8" fill="#b6421d" fill-opacity="0.55"/><circle cx="529.9" cy="388.7" r="8" fill="#b6421d" fill-opacity="0.55"/><circle cx="515.6" cy="417.2" r="8" fill="#b6421d" fill-opacity="0.55"/><circle cx="640.0" cy="404.3" r="8" fill="#b6421d" fill-opacity="0.55"/><circle cx="611.8" cy="424.5" r="8" fill="#b6421d" fill-opacity="0.55"/><circle cx="598.6" cy="596.5" r="8" fill="#b6421d" fill-opacity="0.55"/><circle cx="466.9" cy="440.5" r="8" fill="#b6421d" fill-opacity="0.55"/><circle cx="421.4" cy="379.5" r="8" fill="#b6421d" fill-opacity="0.55"/><circle cx="451.4" cy="436.8" r="8" fill="#b6421d" fill-opacity="0.55"/><circle cx="580.7" cy="494.0" r="8" fill="#b6421d" fill-opacity="0.55"/><circle cx="457.7" cy="440.7" r="8" fill="#b6421d" fill-opacity="0.55"/><circle cx="373.1" cy="471.8" r="8" fill="#b6421d" fill-opacity="0.55"/><circle cx="479.4" cy="352.8" r="8" fill="#b6421d" fill-opacity="0.55"/><circle cx="436.8" cy="471.0" r="8" fill="#b6421d" fill-opacity="0.55"/><circle cx="508.6" cy="475.9" r="8" fill="#b6421d" fill-opacity="0.55"/><circle cx="461.6" cy="441.1" r="8" fill="#b6421d" fill-opacity="0.55"/><circle cx="479.2" cy="321.5" r="8" fill="#b6421d" fill-opacity="0.55"/><circle cx="486.1" cy="420.3" r="8" fill="#b6421d" fill-opacity="0.55"/><circle cx="440.6" cy="486.2" r="8" fill="#b6421d" fill-opacity="0.55"/><circle cx="685.6" cy="531.5" r="8" fill="#b6421d" fill-opacity="0.55"/><circle cx="503.6" cy="347.3" r="8" fill="#b6421d" fill-opacity="0.55"/><circle cx="484.2" cy="385.0" r="8" fill="#b6421d" fill-opacity="0.55"/><circle cx="513.4" cy="514.8" r="8" fill="#b6421d" fill-opacity="0.55"/><circle cx="495.3" cy="329.0" r="8" fill="#b6421d" fill-opacity="0.55"/><circle cx="617.0" cy="434.1" r="8" fill="#b6421d" fill-opacity="0.55"/><circle cx="617.8" cy="367.4" r="8" fill="#b6421d" fill-opacity="0.55"/><circle cx="716.0" cy="343.0" r="8" fill="#b6421d" fill-opacity="0.55"/><circle cx="511.7" cy="487.9" r="8" fill="#b6421d" fill-opacity="0.55"/><circle cx="277.0" cy="373.7" r="8" fill="#b6421d" fill-opacity="0.55"/><circle cx="362.1" cy="552.1" r="8" fill="#b6421d" fill-opacity="0.55"/><circle cx="560.5" cy="361.9" r="8" fill="#b6421d" fill-opacity="0.55"/><circle cx="349.3" cy="305.7" r="8" fill="#b6421d" fill-opacity="0.55"/><text x="520" y="310" class="label"><tspan x="520" dy="0">HOUSING</tspan></text><circle cx="1044.8" cy="282.6" r="8" fill="#3f6c7a" fill-opacity="0.55"/><circle cx="1061.7" cy="301.9" r="8" fill="#3f6c7a" fill-opacity="0.55"/><circle cx="883.2" cy="468.8" r="8" fill="#3f6c7a" fill-opacity="0.55"/><circle cx="1072.1" cy="290.4" r="8" fill="#3f6c7a" fill-opacity="0.55"/><circle cx="1000.5" cy="433.4" r="8" fill="#3f6c7a" fill-opacity="0.55"/><circle cx="1101.0" cy="251.2" r="8" fill="#3f6c7a" fill-opacity="0.55"/><circle cx="1156.2" cy="295.8" r="8" fill="#3f6c7a" fill-opacity="0.55"/><circle cx="1079.9" cy="253.9" r="8" fill="#3f6c7a" fill-opacity="0.55"/><circle cx="971.8" cy="396.3" r="8" fill="#3f6c7a" fill-opacity="0.55"/><circle cx="925.9" cy="345.4" r="8" fill="#3f6c7a" fill-opacity="0.55"/><circle cx="1065.4" cy="292.9" r="8" fill="#3f6c7a" fill-opacity="0.55"/><circle cx="1155.5" cy="387.6" r="8" fill="#3f6c7a" fill-opacity="0.55"/><circle cx="1018.4" cy="412.4" r="8" fill="#3f6c7a" fill-opacity="0.55"/><circle cx="1148.5" cy="428.3" r="8" fill="#3f6c7a" fill-opacity="0.55"/><circle cx="1019.4" cy="397.5" r="8" fill="#3f6c7a" fill-opacity="0.55"/><circle cx="1063.6" cy="261.8" r="8" fill="#3f6c7a" fill-opacity="0.55"/><circle cx="999.6" cy="484.4" r="8" fill="#3f6c7a" fill-opacity="0.55"/><circle cx="961.6" cy="374.9" r="8" fill="#3f6c7a" fill-opacity="0.55"/><circle cx="1176.7" cy="313.4" r="8" fill="#3f6c7a" fill-opacity="0.55"/><circle cx="1028.9" cy="286.9" r="8" fill="#3f6c7a" fill-opacity="0.55"/><circle cx="1074.3" cy="253.0" r="8" fill="#3f6c7a" fill-opacity="0.55"/><circle cx="1069.1" cy="281.2" r="8" fill="#3f6c7a" fill-opacity="0.55"/><circle cx="1059.0" cy="218.0" r="8" fill="#3f6c7a" fill-opacity="0.55"/><circle cx="935.5" cy="406.1" r="8" fill="#3f6c7a" fill-opacity="0.55"/><circle cx="1080.6" cy="123.2" r="8" fill="#3f6c7a" fill-opacity="0.55"/><circle cx="1161.1" cy="281.1" r="8" fill="#3f6c7a" fill-opacity="0.55"/><circle cx="1106.2" cy="412.8" r="8" fill="#3f6c7a" fill-opacity="0.55"/><circle cx="1015.6" cy="312.6" r="8" fill="#3f6c7a" fill-opacity="0.55"/><circle cx="863.4" cy="372.8" r="8" fill="#3f6c7a" fill-opacity="0.55"/><circle cx="1190.4" cy="250.7" r="8" fill="#3f6c7a" fill-opacity="0.55"/><circle cx="1127.0" cy="392.6" r="8" fill="#3f6c7a" fill-opacity="0.55"/><circle cx="1111.8" cy="263.6" r="8" fill="#3f6c7a" fill-opacity="0.55"/><circle cx="1019.8" cy="357.8" r="8" fill="#3f6c7a" fill-opacity="0.55"/><circle cx="1177.3" cy="273.1" r="8" fill="#3f6c7a" fill-opacity="0.55"/><circle cx="983.8" cy="285.0" r="8" fill="#3f6c7a" fill-opacity="0.55"/><circle cx="1103.9" cy="226.7" r="8" fill="#3f6c7a" fill-opacity="0.55"/><circle cx="1011.8" cy="246.5" r="8" fill="#3f6c7a" fill-opacity="0.55"/><circle cx="999.9" cy="393.2" r="8" fill="#3f6c7a" fill-opacity="0.55"/><circle cx="982.7" cy="388.6" r="8" fill="#3f6c7a" fill-opacity="0.55"/><circle cx="988.5" cy="335.7" r="8" fill="#3f6c7a" fill-opacity="0.55"/><circle cx="1015.9" cy="276.3" r="8" fill="#3f6c7a" fill-opacity="0.55"/><circle cx="1065.0" cy="385.3" r="8" fill="#3f6c7a" fill-opacity="0.55"/><circle cx="960.7" cy="387.7" r="8" fill="#3f6c7a" fill-opacity="0.55"/><circle cx="1037.8" cy="308.6" r="8" fill="#3f6c7a" fill-opacity="0.55"/><circle cx="1042.1" cy="397.4" r="8" fill="#3f6c7a" fill-opacity="0.55"/><circle cx="1092.9" cy="444.3" r="8" fill="#3f6c7a" fill-opacity="0.55"/><circle cx="1051.3" cy="354.3" r="8" fill="#3f6c7a" fill-opacity="0.55"/><circle cx="899.7" cy="300.7" r="8" fill="#3f6c7a" fill-opacity="0.55"/><circle cx="1079.5" cy="260.2" r="8" fill="#3f6c7a" fill-opacity="0.55"/><circle cx="948.5" cy="468.2" r="8" fill="#3f6c7a" fill-opacity="0.55"/><circle cx="1021.6" cy="260.4" r="8" fill="#3f6c7a" fill-opacity="0.55"/><circle cx="846.0" cy="276.9" r="8" fill="#3f6c7a" fill-opacity="0.55"/><circle cx="1226.7" cy="337.3" r="8" fill="#3f6c7a" fill-opacity="0.55"/><circle cx="1080.8" cy="386.1" r="8" fill="#3f6c7a" fill-opacity="0.55"/><circle cx="986.7" cy="363.3" r="8" fill="#3f6c7a" fill-opacity="0.55"/><circle cx="1032.3" cy="315.3" r="8" fill="#3f6c7a" fill-opacity="0.55"/><circle cx="1115.8" cy="279.6" r="8" fill="#3f6c7a" fill-opacity="0.55"/><circle cx="963.5" cy="292.5" r="8" fill="#3f6c7a" fill-opacity="0.55"/><circle cx="1132.9" cy="304.3" r="8" fill="#3f6c7a" fill-opacity="0.55"/><circle cx="1183.1" cy="244.1" r="8" fill="#3f6c7a" fill-opacity="0.55"/><circle cx="943.5" cy="152.7" r="8" fill="#3f6c7a" fill-opacity="0.55"/><circle cx="948.9" cy="344.4" r="8" fill="#3f6c7a" fill-opacity="0.55"/><circle cx="1088.0" cy="268.8" r="8" fill="#3f6c7a" fill-opacity="0.55"/><circle cx="983.6" cy="438.6" r="8" fill="#3f6c7a" fill-opacity="0.55"/><circle cx="986.0" cy="345.5" r="8" fill="#3f6c7a" fill-opacity="0.55"/><circle cx="1082.5" cy="269.8" r="8" fill="#3f6c7a" fill-opacity="0.55"/><circle cx="1133.3" cy="324.6" r="8" fill="#3f6c7a" fill-opacity="0.55"/><circle cx="1094.8" cy="317.6" r="8" fill="#3f6c7a" fill-opacity="0.55"/><circle cx="1051.1" cy="423.8" r="8" fill="#3f6c7a" fill-opacity="0.55"/><circle cx="1046.6" cy="210.1" r="8" fill="#3f6c7a" fill-opacity="0.55"/><circle cx="1003.7" cy="311.2" r="8" fill="#3f6c7a" fill-opacity="0.55"/><circle cx="1012.2" cy="351.5" r="8" fill="#3f6c7a" fill-opacity="0.55"/><circle cx="888.6" cy="461.7" r="8" fill="#3f6c7a" fill-opacity="0.55"/><circle cx="954.6" cy="428.9" r="8" fill="#3f6c7a" fill-opacity="0.55"/><circle cx="995.8" cy="313.1" r="8" fill="#3f6c7a" fill-opacity="0.55"/><circle cx="1016.9" cy="313.6" r="8" fill="#3f6c7a" fill-opacity="0.55"/><circle cx="1074.7" cy="424.5" r="8" fill="#3f6c7a" fill-opacity="0.55"/><circle cx="1182.9" cy="469.8" r="8" fill="#3f6c7a" fill-opacity="0.55"/><circle cx="923.0" cy="384.5" r="8" fill="#3f6c7a" fill-opacity="0.55"/><circle cx="1069.7" cy="332.7" r="8" fill="#3f6c7a" fill-opacity="0.55"/><circle cx="1054.2" cy="339.9" r="8" fill="#3f6c7a" fill-opacity="0.55"/><circle cx="930.1" cy="279.3" r="8" fill="#3f6c7a" fill-opacity="0.55"/><circle cx="1109.7" cy="334.1" r="8" fill="#3f6c7a" fill-opacity="0.55"/><circle cx="1146.4" cy="306.7" r="8" fill="#3f6c7a" fill-opacity="0.55"/><circle cx="978.7" cy="346.2" r="8" fill="#3f6c7a" fill-opacity="0.55"/><text x="1050" y="220" class="label"><tspan x="1050" dy="0">CLIMATE</tspan></text><circle cx="827.2" cy="676.5" r="8" fill="#7a5e3f" fill-opacity="0.55"/><circle cx="773.4" cy="665.5" r="8" fill="#7a5e3f" fill-opacity="0.55"/><circle cx="849.4" cy="546.6" r="8" fill="#7a5e3f" fill-opacity="0.55"/><circle cx="803.5" cy="595.8" r="8" fill="#7a5e3f" fill-opacity="0.55"/><circle cx="904.8" cy="695.2" r="8" fill="#7a5e3f" fill-opacity="0.55"/><circle cx="876.9" cy="571.5" r="8" fill="#7a5e3f" fill-opacity="0.55"/><circle cx="880.6" cy="620.3" r="8" fill="#7a5e3f" fill-opacity="0.55"/><circle cx="768.0" cy="661.4" r="8" fill="#7a5e3f" fill-opacity="0.55"/><circle cx="753.3" cy="587.6" r="8" fill="#7a5e3f" fill-opacity="0.55"/><circle cx="730.0" cy="511.9" r="8" fill="#7a5e3f" fill-opacity="0.55"/><circle cx="849.0" cy="497.4" r="8" fill="#7a5e3f" fill-opacity="0.55"/><circle cx="762.9" cy="582.6" r="8" fill="#7a5e3f" fill-opacity="0.55"/><circle cx="858.2" cy="561.4" r="8" fill="#7a5e3f" fill-opacity="0.55"/><circle cx="879.0" cy="551.3" r="8" fill="#7a5e3f" fill-opacity="0.55"/><circle cx="751.2" cy="550.3" r="8" fill="#7a5e3f" fill-opacity="0.55"/><circle cx="775.9" cy="557.4" r="8" fill="#7a5e3f" fill-opacity="0.55"/><circle cx="697.7" cy="555.9" r="8" fill="#7a5e3f" fill-opacity="0.55"/><circle cx="745.8" cy="682.5" r="8" fill="#7a5e3f" fill-opacity="0.55"/><circle cx="727.8" cy="631.3" r="8" fill="#7a5e3f" fill-opacity="0.55"/><circle cx="740.4" cy="668.8" r="8" fill="#7a5e3f" fill-opacity="0.55"/><circle cx="806.7" cy="568.2" r="8" fill="#7a5e3f" fill-opacity="0.55"/><circle cx="916.1" cy="713.5" r="8" fill="#7a5e3f" fill-opacity="0.55"/><circle cx="948.2" cy="675.6" r="8" fill="#7a5e3f" fill-opacity="0.55"/><circle cx="823.4" cy="561.0" r="8" fill="#7a5e3f" fill-opacity="0.55"/><circle cx="777.3" cy="569.6" r="8" fill="#7a5e3f" fill-opacity="0.55"/><circle cx="861.5" cy="578.6" r="8" fill="#7a5e3f" fill-opacity="0.55"/><circle cx="837.3" cy="622.7" r="8" fill="#7a5e3f" fill-opacity="0.55"/><circle cx="808.5" cy="562.6" r="8" fill="#7a5e3f" fill-opacity="0.55"/><circle cx="728.2" cy="786.8" r="8" fill="#7a5e3f" fill-opacity="0.55"/><circle cx="807.9" cy="495.9" r="8" fill="#7a5e3f" fill-opacity="0.55"/><circle cx="712.0" cy="564.0" r="8" fill="#7a5e3f" fill-opacity="0.55"/><circle cx="975.2" cy="618.9" r="8" fill="#7a5e3f" fill-opacity="0.55"/><circle cx="740.4" cy="730.9" r="8" fill="#7a5e3f" fill-opacity="0.55"/><circle cx="659.3" cy="688.8" r="8" fill="#7a5e3f" fill-opacity="0.55"/><circle cx="1058.4" cy="610.6" r="8" fill="#7a5e3f" fill-opacity="0.55"/><circle cx="903.8" cy="657.4" r="8" fill="#7a5e3f" fill-opacity="0.55"/><circle cx="572.7" cy="633.7" r="8" fill="#7a5e3f" fill-opacity="0.55"/><circle cx="770.2" cy="416.0" r="8" fill="#7a5e3f" fill-opacity="0.55"/><circle cx="894.2" cy="568.9" r="8" fill="#7a5e3f" fill-opacity="0.55"/><circle cx="848.6" cy="641.5" r="8" fill="#7a5e3f" fill-opacity="0.55"/><circle cx="767.3" cy="443.5" r="8" fill="#7a5e3f" fill-opacity="0.55"/><circle cx="780.1" cy="554.5" r="8" fill="#7a5e3f" fill-opacity="0.55"/><circle cx="718.2" cy="551.3" r="8" fill="#7a5e3f" fill-opacity="0.55"/><circle cx="817.5" cy="717.7" r="8" fill="#7a5e3f" fill-opacity="0.55"/><circle cx="826.3" cy="625.8" r="8" fill="#7a5e3f" fill-opacity="0.55"/><circle cx="910.5" cy="641.8" r="8" fill="#7a5e3f" fill-opacity="0.55"/><circle cx="799.8" cy="562.8" r="8" fill="#7a5e3f" fill-opacity="0.55"/><circle cx="715.8" cy="674.9" r="8" fill="#7a5e3f" fill-opacity="0.55"/><circle cx="811.5" cy="694.8" r="8" fill="#7a5e3f" fill-opacity="0.55"/><circle cx="750.7" cy="567.0" r="8" fill="#7a5e3f" fill-opacity="0.55"/><circle cx="853.7" cy="713.9" r="8" fill="#7a5e3f" fill-opacity="0.55"/><circle cx="803.3" cy="566.8" r="8" fill="#7a5e3f" fill-opacity="0.55"/><circle cx="863.7" cy="514.4" r="8" fill="#7a5e3f" fill-opacity="0.55"/><circle cx="918.9" cy="519.3" r="8" fill="#7a5e3f" fill-opacity="0.55"/><circle cx="685.3" cy="613.9" r="8" fill="#7a5e3f" fill-opacity="0.55"/><circle cx="771.2" cy="703.7" r="8" fill="#7a5e3f" fill-opacity="0.55"/><circle cx="888.1" cy="641.9" r="8" fill="#7a5e3f" fill-opacity="0.55"/><circle cx="643.1" cy="604.5" r="8" fill="#7a5e3f" fill-opacity="0.55"/><circle cx="744.8" cy="469.8" r="8" fill="#7a5e3f" fill-opacity="0.55"/><circle cx="973.9" cy="473.8" r="8" fill="#7a5e3f" fill-opacity="0.55"/><circle cx="733.0" cy="544.7" r="8" fill="#7a5e3f" fill-opacity="0.55"/><circle cx="761.0" cy="619.6" r="8" fill="#7a5e3f" fill-opacity="0.55"/><circle cx="853.7" cy="518.0" r="8" fill="#7a5e3f" fill-opacity="0.55"/><circle cx="853.2" cy="654.1" r="8" fill="#7a5e3f" fill-opacity="0.55"/><circle cx="844.8" cy="720.2" r="8" fill="#7a5e3f" fill-opacity="0.55"/><circle cx="773.4" cy="583.1" r="8" fill="#7a5e3f" fill-opacity="0.55"/><circle cx="778.2" cy="526.7" r="8" fill="#7a5e3f" fill-opacity="0.55"/><circle cx="810.4" cy="685.5" r="8" fill="#7a5e3f" fill-opacity="0.55"/><circle cx="866.8" cy="608.2" r="8" fill="#7a5e3f" fill-opacity="0.55"/><circle cx="829.6" cy="703.6" r="8" fill="#7a5e3f" fill-opacity="0.55"/><circle cx="922.7" cy="476.6" r="8" fill="#7a5e3f" fill-opacity="0.55"/><circle cx="702.8" cy="680.9" r="8" fill="#7a5e3f" fill-opacity="0.55"/><circle cx="881.8" cy="656.9" r="8" fill="#7a5e3f" fill-opacity="0.55"/><circle cx="898.2" cy="529.0" r="8" fill="#7a5e3f" fill-opacity="0.55"/><circle cx="711.6" cy="641.1" r="8" fill="#7a5e3f" fill-opacity="0.55"/><circle cx="713.2" cy="617.0" r="8" fill="#7a5e3f" fill-opacity="0.55"/><circle cx="992.9" cy="483.0" r="8" fill="#7a5e3f" fill-opacity="0.55"/><circle cx="863.8" cy="721.7" r="8" fill="#7a5e3f" fill-opacity="0.55"/><circle cx="929.3" cy="577.4" r="8" fill="#7a5e3f" fill-opacity="0.55"/><circle cx="737.9" cy="609.8" r="8" fill="#7a5e3f" fill-opacity="0.55"/><circle cx="708.5" cy="619.2" r="8" fill="#7a5e3f" fill-opacity="0.55"/><circle cx="788.0" cy="587.8" r="8" fill="#7a5e3f" fill-opacity="0.55"/><circle cx="888.3" cy="609.6" r="8" fill="#7a5e3f" fill-opacity="0.55"/><circle cx="766.0" cy="596.3" r="8" fill="#7a5e3f" fill-opacity="0.55"/><circle cx="797.3" cy="589.7" r="8" fill="#7a5e3f" fill-opacity="0.55"/><text x="840" y="490" class="label"><tspan x="840" dy="0">MOBILITY</tspan></text>
</svg>