<svg xmlns="http://www.w3.org/2000/svg" width="1600" height="900" viewBox="0 0 1600 900" role="img" aria-label="Tutorial illustration">
<rect width="1600" height="900" fill="#f3f0e9"/>
<style>
text { font-family: Helvetica, Arial, sans-serif; fill: #111111; }
.small { font-size: 22px; fill: #66615a; }
.body { font-size: 26px; fill: #66615a; }
.title { font-size: 58px; font-weight: 700; letter-spacing: -1px; }
.label { font-size: 24px; font-weight: 700; }
.accent { fill: #b6421d; }
.line { stroke: #171310; stroke-opacity: 0.2; stroke-width: 2; }
.box { fill: none; stroke: #111111; stroke-width: 2; }
.arrow { stroke: #b6421d; stroke-width: 3; fill: none; marker-end: url(#arrow); }
.softbox { fill: none; stroke: #171310; stroke-opacity: 0.5; stroke-width: 1.5; }
</style>
<defs>
  <marker id="arrow" markerWidth="10" markerHeight="10" refX="9" refY="3" orient="auto" markerUnits="strokeWidth">
    <path d="M0,0 L0,6 L9,3 z" fill="#b6421d" />
  </marker>
</defs>
<text x="90" y="120" class="title"><tspan x="90" dy="0">READING MOVEMENT</tspan></text><text x="92" y="165" class="body"><tspan x="92" dy="0">Computer vision as a way to observe bodies, trajectories, and</tspan><tspan x="92" dy="32">spatial behavior</tspan></text><rect x="120" y="270" width="620" height="420" class="box"/><rect x="220" y="380" width="90" height="170" fill="none" stroke="#b6421d" stroke-width="3"/><circle cx="265" cy="408" r="14" fill="none" stroke="#111111" stroke-width="2"/><line x1="265" y1="424" x2="265" y2="475" class="line"/><line x1="265" y1="440" x2="240" y2="462" class="line"/><line x1="265" y1="440" x2="290" y2="462" class="line"/><line x1="265" y1="475" x2="248" y2="512" class="line"/><line x1="265" y1="475" x2="285" y2="512" class="line"/><rect x="350" y="460" width="90" height="170" fill="none" stroke="#b6421d" stroke-width="3"/><circle cx="395" cy="488" r="14" fill="none" stroke="#111111" stroke-width="2"/><line x1="395" y1="504" x2="395" y2="555" class="line"/><line x1="395" y1="520" x2="370" y2="542" class="line"/><line x1="395" y1="520" x2="420" y2="542" class="line"/><line x1="395" y1="555" x2="378" y2="592" class="line"/><line x1="395" y1="555" x2="415" y2="592" class="line"/><rect x="520" y="350" width="90" height="170" fill="none" stroke="#b6421d" stroke-width="3"/><circle cx="565" cy="378" r="14" fill="none" stroke="#111111" stroke-width="2"/><line x1="565" y1="394" x2="565" y2="445" class="line"/><line x1="565" y1="410" x2="540" y2="432" class="line"/><line x1="565" y1="410" x2="590" y2="432" class="line"/><line x1="565" y1="445" x2="548" y2="482" class="line"/><line x1="565" y1="445" x2="585" y2="482" class="line"/><path d="M 185 610 C 260 560, 290 510, 340 460 S 470 390, 560 340" fill="none" stroke="#667a8f" stroke-width="4" stroke-opacity="0.7"/><text x="140" y="730" class="small"><tspan x="140" dy="0">person detection + tracking + pose</tspan><tspan x="140" dy="24">keypoints</tspan></text><line x1="780" y1="430" x2="980" y2="430" class="arrow"/><rect x="1030" y="250" width="420" height="360" class="box"/><text x="1060" y="305" class="label"><tspan x="1060" dy="0">Exported movement data</tspan></text><line x1="1060" y1="360" x2="1415" y2="360" class="line"/><line x1="1060" y1="430" x2="1415" y2="430" class="line"/><line x1="1060" y1="500" x2="1415" y2="500" class="line"/><line x1="1060" y1="570" x2="1415" y2="570" class="line"/><text x="1070" y="345" class="small"><tspan x="1070" dy="0">frame</tspan></text><text x="1170" y="345" class="small"><tspan x="1170" dy="0">track_id</tspan></text><text x="1285" y="345" class="small"><tspan x="1285" dy="0">keypoints</tspan></text><text x="1070" y="395" class="small"><tspan x="1070" dy="0">0231</tspan></text><text x="1170" y="395" class="small"><tspan x="1170" dy="0">A12</tspan></text><text x="1285" y="395" class="small"><tspan x="1285" dy="0">(x1, y1, x2, y2,</tspan><tspan x="1285" dy="24">...)</tspan></text><text x="1070" y="465" class="small"><tspan x="1070" dy="0">0232</tspan></text><text x="1170" y="465" class="small"><tspan x="1170" dy="0">A12</tspan></text><text x="1285" y="465" class="small"><tspan x="1285" dy="0">(x1, y1, x2, y2,</tspan><tspan x="1285" dy="24">...)</tspan></text><text x="1030" y="675" class="small accent"><tspan x="1030" dy="0">video frame -&gt; detected body -&gt;</tspan><tspan x="1030" dy="24">measurable spatial behavior</tspan></text>
</svg>