<svg xmlns="http://www.w3.org/2000/svg" width="1600" height="900" viewBox="0 0 1600 900" role="img" aria-label="Tutorial illustration">
<rect width="1600" height="900" fill="#f3f0e9"/>
<style>
text { font-family: Helvetica, Arial, sans-serif; fill: #111111; }
.small { font-size: 22px; fill: #66615a; }
.body { font-size: 26px; fill: #66615a; }
.title { font-size: 58px; font-weight: 700; letter-spacing: -1px; }
.label { font-size: 24px; font-weight: 700; }
.accent { fill: #b6421d; }
.line { stroke: #171310; stroke-opacity: 0.2; stroke-width: 2; }
.box { fill: none; stroke: #111111; stroke-width: 2; }
.arrow { stroke: #b6421d; stroke-width: 3; fill: none; marker-end: url(#arrow); }
.softbox { fill: none; stroke: #171310; stroke-opacity: 0.5; stroke-width: 1.5; }
</style>
<defs>
  <marker id="arrow" markerWidth="10" markerHeight="10" refX="9" refY="3" orient="auto" markerUnits="strokeWidth">
    <path d="M0,0 L0,6 L9,3 z" fill="#b6421d" />
  </marker>
</defs>
<text x="90" y="120" class="title"><tspan x="90" dy="0">BUILDING A VISUAL DATASET</tspan></text><text x="92" y="165" class="body"><tspan x="92" dy="0">Search, collect, describe, and structure images as research</tspan><tspan x="92" dy="32">material</tspan></text><rect x="110" y="270" width="180" height="130" fill="#c96a4a" fill-opacity="0.88" stroke="#111111" stroke-width="1.5"/><text x="124" y="382" class="label"><tspan x="124" dy="0">wall</tspan></text><rect x="330" y="270" width="180" height="130" fill="#8b9d83" fill-opacity="0.88" stroke="#111111" stroke-width="1.5"/><text x="344" y="382" class="label"><tspan x="344" dy="0">street</tspan></text><rect x="550" y="270" width="180" height="130" fill="#667a8f" fill-opacity="0.88" stroke="#111111" stroke-width="1.5"/><text x="564" y="382" class="label"><tspan x="564" dy="0">facade</tspan></text><rect x="110" y="440" width="180" height="130" fill="#d6b26d" fill-opacity="0.88" stroke="#111111" stroke-width="1.5"/><text x="124" y="552" class="label"><tspan x="124" dy="0">fence</tspan></text><rect x="330" y="440" width="180" height="130" fill="#a07f6d" fill-opacity="0.88" stroke="#111111" stroke-width="1.5"/><text x="344" y="552" class="label"><tspan x="344" dy="0">shade</tspan></text><rect x="550" y="440" width="180" height="130" fill="#8d5b5b" fill-opacity="0.88" stroke="#111111" stroke-width="1.5"/><text x="564" y="552" class="label"><tspan x="564" dy="0">concrete</tspan></text><line x1="810" y1="375" x2="980" y2="375" class="arrow"/><rect x="1010" y="250" width="470" height="380" class="box"/><line x1="1010" y1="320" x2="1480" y2="320" class="line"/><line x1="1010" y1="390" x2="1480" y2="390" class="line"/><line x1="1010" y1="460" x2="1480" y2="460" class="line"/><line x1="1010" y1="530" x2="1480" y2="530" class="line"/><line x1="1010" y1="600" x2="1480" y2="600" class="line"/><text x="1035" y="295" class="small"><tspan x="1035" dy="0">filename</tspan></text><text x="1210" y="295" class="small"><tspan x="1210" dy="0">description</tspan></text><text x="1035" y="360" class="small"><tspan x="1035" dy="0">img_001</tspan></text><text x="1210" y="360" class="small"><tspan x="1210" dy="0">concrete barrier / open</tspan><tspan x="1210" dy="24">sky</tspan></text><text x="1035" y="430" class="small"><tspan x="1035" dy="0">img_002</tspan></text><text x="1210" y="430" class="small"><tspan x="1210" dy="0">fence / vegetation present</tspan></text><text x="1035" y="500" class="small"><tspan x="1035" dy="0">img_003</tspan></text><text x="1210" y="500" class="small"><tspan x="1210" dy="0">street wall / hard shadow</tspan></text><text x="1035" y="570" class="small"><tspan x="1035" dy="0">img_004</tspan></text><text x="1210" y="570" class="small"><tspan x="1210" dy="0">facade / signage / road</tspan><tspan x="1210" dy="24">edge</tspan></text><text x="1010" y="700" class="label accent"><tspan x="1010" dy="0">Image folder -&gt; metadata table -&gt;</tspan><tspan x="1010" dy="28">searchable corpus</tspan></text>
</svg>